<svg width="24" height="24" viewBox="0 0 24 24" fill="none" xmlns="http://www.w3.org/2000/svg">
<path fill-rule="evenodd" clip-rule="evenodd" d="M1 11C1 5.936 6.029 2 12 2C17.971 2 23 5.936 23 11C23 16.064 17.971 20 12 20C11.5313 20 11.0703 19.9767 10.617 19.93L5.763 22.925C5.68126 22.9755 5.58669 23.0014 5.49061 22.9996C5.39453 22.9978 5.30101 22.9683 5.22125 22.9147C5.14148 22.8611 5.07886 22.7857 5.04086 22.6974C5.00286 22.6091 4.99111 22.5118 5.007 22.417L5.689 18.375C2.885 16.767 1 14.085 1 11ZM3.75 9C3.75 8.80109 3.82902 8.61032 3.96967 8.46967C4.11032 8.32902 4.30109 8.25 4.5 8.25H7.5C7.69891 8.25 7.88968 8.32902 8.03033 8.46967C8.17098 8.61032 8.25 8.80109 8.25 9C8.25 9.19891 8.17098 9.38968 8.03033 9.53033C7.88968 9.67098 7.69891 9.75 7.5 9.75H6.75V13.5C6.75 13.6989 6.67098 13.8897 6.53033 14.0303C6.38968 14.171 6.19891 14.25 6 14.25C5.80109 14.25 5.61032 14.171 5.46967 14.0303C5.32902 13.8897 5.25 13.6989 5.25 13.5V9.75H4.5C4.30109 9.75 4.11032 9.67098 3.96967 9.53033C3.82902 9.38968 3.75 9.19891 3.75 9ZM10.449 8.728C10.3942 8.58715 10.2982 8.46614 10.1734 8.38082C10.0487 8.2955 9.90112 8.24984 9.75 8.24984C9.59888 8.24984 9.45128 8.2955 9.32655 8.38082C9.20182 8.46614 9.10577 8.58715 9.051 8.728L7.301 13.228C7.26528 13.3198 7.24799 13.4177 7.25012 13.5162C7.25225 13.6147 7.27375 13.7118 7.3134 13.8019C7.35305 13.8921 7.41007 13.9736 7.48121 14.0417C7.55235 14.1098 7.63621 14.1633 7.728 14.199C7.81979 14.2347 7.91772 14.252 8.0162 14.2499C8.11468 14.2478 8.21177 14.2263 8.30193 14.1866C8.3921 14.147 8.47357 14.0899 8.5417 14.0188C8.60983 13.9477 8.66328 13.8638 8.699 13.772L8.902 13.25H10.598L10.801 13.772C10.8636 13.9348 10.9809 14.0707 11.1328 14.1563C11.2848 14.2419 11.4618 14.2719 11.6334 14.2411C11.8051 14.2103 11.9606 14.1207 12.0733 13.9876C12.1861 13.8546 12.2489 13.6864 12.251 13.512C12.2541 13.7087 12.3344 13.8962 12.4745 14.0342C12.6146 14.1723 12.8033 14.2498 13 14.25H15C15.1989 14.25 15.3897 14.171 15.5303 14.0303C15.671 13.8897 15.75 13.6989 15.75 13.5C15.75 13.6989 15.829 13.8897 15.9697 14.0303C16.1103 14.171 16.3011 14.25 16.5 14.25C16.6989 14.25 16.8897 14.171 17.0303 14.0303C17.171 13.8897 17.25 13.6989 17.25 13.5V12.31L17.438 12.123L18.914 13.969C18.9756 14.046 19.0517 14.11 19.1381 14.1576C19.2244 14.2051 19.3193 14.2351 19.4173 14.246C19.5152 14.2569 19.6144 14.2483 19.709 14.2209C19.8037 14.1934 19.892 14.1476 19.969 14.086C20.046 14.0244 20.11 13.9483 20.1576 13.8619C20.2051 13.7756 20.2351 13.6807 20.246 13.5827C20.2569 13.4848 20.2483 13.3856 20.2209 13.291C20.1934 13.1963 20.1476 13.108 20.086 13.031L18.505 11.056L20.03 9.53C20.1625 9.38782 20.2346 9.19978 20.2312 9.00548C20.2277 8.81118 20.149 8.62579 20.0116 8.48838C19.8742 8.35097 19.6888 8.27225 19.4945 8.26882C19.3002 8.2654 19.1122 8.33752 18.97 8.47L17.25 10.19V9C17.25 8.80109 17.171 8.61032 17.0303 8.46967C16.8897 8.32902 16.6989 8.25 16.5 8.25C16.3011 8.25 16.1103 8.32902 15.9697 8.46967C15.829 8.61032 15.75 8.80109 15.75 9V13.5C15.75 13.3011 15.671 13.1103 15.5303 12.9697C15.3897 12.829 15.1989 12.75 15 12.75H13.75V9C13.75 8.80109 13.671 8.61032 13.5303 8.46967C13.3897 8.32902 13.1989 8.25 13 8.25C12.8011 8.25 12.6103 8.32902 12.4697 8.46967C12.329 8.61032 12.25 8.80109 12.25 9V13.482C12.2469 13.3951 12.2297 13.3093 12.199 13.228L10.449 8.728ZM9.75 11.07L10.015 11.751H9.485L9.75 11.071V11.07Z" fill="black"/>
</svg>
